<?xml version="1.0" encoding="utf-8"?>
<!-- Generator: Adobe Illustrator 23.0.1, SVG Export Plug-In . SVG Version: 6.00 Build 0)  -->
<svg version="1.1" id="Layer_1" xmlns="http://www.w3.org/2000/svg" xmlns:xlink="http://www.w3.org/1999/xlink" x="0px" y="0px"
	 viewBox="0 0 1080 1080" style="enable-background:new 0 0 1080 1080;" xml:space="preserve">
<style type="text/css">
	.st0{fill:#FFFFFF;}
	.st1{fill:#BF0000;}
	.st2{fill:none;}
</style>
<g>
	<g>
		<path class="st0" d="M522.4,135l9.6,16.6l37.7-3.9l28.7,49.6l-22.1,30.9l9.7,16.8l89.6-125.4L522.4,135z M586.5,146.1l52.5-5.4
			l-30.8,43L586.5,146.1z"/>
		<path class="st0" d="M714,191.6l-119.2,68.8l9.2,16l119.2-68.8L714,191.6z"/>
		<path class="st0" d="M688.6,282.6l58.4-33.7l-9.1-15.8l-119.2,68.8l9.1,15.8l16-9.2c-3.8,6.3-5.7,13.2-5.8,20.5
			c-0.1,7.3,1.6,14,5.1,20.1c5.4,9.4,14.2,15.4,26.4,17.8s23.6,0.5,34.4-5.7c10.8-6.2,18-15.2,21.7-26.9c3.7-11.7,2.7-22.5-3-32.3
			C715.3,289.3,704,282.8,688.6,282.6z M707.6,326.5c-2.1,7.8-6.6,13.7-13.5,17.7c-6.9,4-14.3,5-22,3c-7.8-2-13.6-6.4-17.5-13.1
			c-4.2-7.3-5.3-14.8-3.3-22.6c2-7.8,6.5-13.7,13.6-17.8c6.8-3.9,14.1-4.8,22-2.7c7.9,2.1,13.8,6.6,17.7,13.4
			C708.6,311.3,709.6,318.7,707.6,326.5z"/>
		<path class="st0" d="M826.4,392.5c-1-8.1-3.4-15.4-7.1-21.8c-5.5-9.6-13.2-16.1-23-19.4c-9.8-3.3-18.9-2.6-27.3,2.3
			c-3.5,2-6.4,4.5-8.8,7.5c-2.4,3-4.4,6.6-6,11c-1.6,4.4-2.5,9-2.7,13.8c-0.2,4.8,0.3,11.3,1.3,19.4c1.1,8.1,1.5,14.3,1.1,18.4
			c-0.3,4.2-1.5,8.2-3.6,12.1c-2,3.9-4.6,6.7-7.8,8.6c-5.3,3.1-10.8,3.7-16.5,1.8c-5.7-1.8-10.2-5.7-13.6-11.5
			c-6.9-12-5.5-24.7,4.3-38.1l-13.7-13.4c-8.4,10.2-13.1,20.6-14.1,31.2c-1,10.6,1.3,20.8,7,30.6c5.8,10,14.2,16.6,25.1,19.7
			c10.9,3.1,21.3,1.9,31-3.7c4.2-2.4,7.7-5.3,10.7-8.8c3-3.5,5.4-7.5,7.2-12.1s2.9-9.8,3.3-15.6c0.4-5.8,0-13.4-1.1-22.8
			c-1.1-9.4-1.2-16.4-0.3-21.1c0.9-4.7,3.1-8,6.7-10.1c4.1-2.4,8.5-2.5,13.1-0.4c4.7,2.1,8.6,6,12,11.7c3,5.3,4.5,9.8,4.3,13.6
			c-0.1,3.8-1,8.4-2.6,13.9l17.8,7C826.4,408.6,827.5,400.7,826.4,392.5z"/>
		<path class="st0" d="M841.5,461.9l-9.2-16l-21.8,12.6l-7.3-12.6l-14.8,8.5l7.3,12.6l-61.1,35.3l9.2,16l61.2-35.3l9.1,15.8
			l14.6-8.4l-9.1-15.8L841.5,461.9z"/>
		<path class="st0" d="M862.7,544.7c-3.1-5.5-7.1-9.1-11.8-10.9c-4.7-1.8-11.3-2.7-19.6-2.6l15.6-9l-9-15.6l-75.8,43.7l9.2,16
			l42-24.2c5.6-3.3,11.4-4.1,17.3-2.7c5.9,1.5,10.4,4.9,13.5,10.3c0.6,1,1.4,3.2,2.6,6.6l18.8-4.4
			C864.5,548.6,863.6,546.2,862.7,544.7z"/>
		<path class="st0" d="M902.3,618.1l-42.7,24.7c-6.1,3.5-11.8,4.8-17.1,3.8c-5.3-1-9.4-4-12.3-9.2c-6.7-11.6-3.4-21.2,9.7-28.8
			l42.7-24.7l-9.2-16l-44.7,25.8c-9.9,5.7-16.1,13.3-18.7,22.9c-2.6,9.6-1.1,19.3,4.6,29.1c5.5,9.6,13.2,15.7,22.9,18.4
			c9.7,2.6,19.3,1.2,28.8-4.3l45.3-26.1L902.3,618.1z"/>
		<path class="st0" d="M898,687.4l76.7-44.3l-9.2-16L846.3,696l9.2,16l40-23.1l-21.2,55.7l11.4,19.8l21.7-56.6l53.9,12.5l-11.9-20.7
			L898,687.4z"/>
		<path class="st0" d="M1004.3,743.9l-9.2-16l-21.8,12.6L966,728l-14.8,8.5l7.3,12.6l-61.2,35.3l9.2,16l61.2-35.3l9.1,15.8l14.6-8.4
			l-9.1-15.8L1004.3,743.9z"/>
		<path class="st0" d="M1026.8,833.8l-42.7,24.7c-6.1,3.5-11.8,4.8-17.1,3.8c-5.3-1-9.4-4-12.3-9.2c-6.7-11.6-3.4-21.2,9.7-28.7
			l42.7-24.7l-9.2-16l-44.7,25.8c-9.9,5.7-16.1,13.3-18.7,22.9c-2.6,9.6-1.1,19.3,4.5,29.1c5.6,9.6,13.2,15.7,22.9,18.4
			c9.7,2.6,19.3,1.2,28.8-4.3l45.3-26.1L1026.8,833.8z"/>
		<path class="st0" d="M1073.1,909.1c-3.1-5.5-7.1-9.1-11.8-10.9c-4.8-1.8-11.3-2.7-19.6-2.6l15.6-9l-9-15.6l-75.8,43.7l9.2,16
			l42-24.2c5.6-3.3,11.4-4.2,17.3-2.7c5.9,1.5,10.3,4.9,13.5,10.3c0.6,1,1.4,3.2,2.6,6.6l18.8-4.3
			C1074.9,913.1,1074,910.7,1073.1,909.1z"/>
	</g>
	<g>
		<polygon class="st0" points="240.8,748.4 225.6,774.6 155.7,895.7 154.3,895.7 139.1,922 127.7,941.8 110.8,971 8.8,971 
			40.7,915.6 52.1,895.7 137.2,748.4 		"/>
		<path class="st1" d="M686.1,822c0,26.8-7,52.1-19.5,73.7c-5,8.7-10.8,16.9-17.3,24.3c-27.3,31.3-67.5,51-112.1,51H110.8l16.8-29.1
			l11.5-19.9l15.2-26.2h391.5c40.7,0,73.7-33,73.7-73.7c0-18-6.3-34.5-17.3-47.4c-13-15.5-32.3-25.5-54-26.2
			c-0.8-0.1-1.7-0.1-2.5-0.1s-1.7,0-2.5,0.1H407.7c0-0.1,0-0.1,0-0.1c-1.4,0.1-2.8,0.1-4.1,0.1h-2.5c-51,0-96-25.7-122.9-64.8
			c-16.6-23.9-26.2-53-26.2-84.5c0-26.9,7.2-52.2,19.6-73.9c25.7-44.9,74.2-75.1,129.5-75.1h170.6l19.7,34.1l23.6,41H409.9
			c-16.4,0-31.6,5.4-43.9,14.5c-3.6,2.8-6.9,5.7-9.9,9c-7.7,8.3-13.7,18.4-17,29.4c-1.9,6.6-3,13.7-3,21s1.1,14.2,3,20.9
			c9,30.8,37.3,53.2,70.8,53.2h120.7c0,0.1,0,0.1,0,0.1c2.2-0.1,4.4-0.1,6.6-0.1c31.3,0,60.3,9.7,84.4,26.2
			c18.5,12.7,33.8,29.4,45,49c8.1,14.2,13.9,29.8,17,46.4C685.3,803.6,686.1,812.7,686.1,822z"/>
		<polygon class="st0" points="714.2,525.2 615,525.2 591.4,484.2 571.7,450.1 571,450.1 492,313.4 440.2,223.6 440.6,223.1 
			440.6,222.9 459.9,189.4 490.2,137.2 520.3,189.4 541.3,225.5 542,226.9 		"/>
		<polygon class="st0" points="971.6,971 871.6,971 863.3,956.6 828.2,895.7 658,600.9 757.9,600.9 928.1,895.7 954.2,940.9 		"/>
	</g>
</g>
<line class="st2" x1="154.3" y1="895.7" x2="153.9" y2="895.7"/>
<line class="st2" x1="615" y1="525.2" x2="614.3" y2="525.2"/>
</svg>
