<?xml version="1.0" encoding="utf-8"?>
<!-- Generator: Adobe Illustrator 23.0.1, SVG Export Plug-In . SVG Version: 6.00 Build 0)  -->
<svg version="1.1" id="Layer_1" xmlns="http://www.w3.org/2000/svg" xmlns:xlink="http://www.w3.org/1999/xlink" x="0px" y="0px"
	 viewBox="0 0 612 792" style="enable-background:new 0 0 612 792;" xml:space="preserve">
<style type="text/css">
	.st0{fill:#FFFFFF;}
</style>
<g>
	<g>
		<path class="st0" d="M381.75,345c0,17,0,34,0,51c-1.58-5.05-5.2-6.74-10.26-6.73c-43.17,0.07-86.34,0.07-129.5,0
			c-5.06-0.01-8.65,1.71-10.23,6.73c0-17,0-34,0-51c1.61,5.29,5.46,6.75,10.61,6.74c42.92-0.08,85.84-0.08,128.76,0
			C376.27,351.75,380.12,350.27,381.75,345z"/>
		<path class="st0" d="M381.75,397.5c0,17,0,34,0,51c-1.58-5.05-5.2-6.74-10.26-6.73c-43.17,0.07-86.34,0.07-129.5,0
			c-5.06-0.01-8.65,1.71-10.23,6.73c0-17,0-34,0-51c1.61,5.29,5.46,6.75,10.61,6.74c42.92-0.08,85.84-0.08,128.76,0
			C376.27,404.25,380.12,402.77,381.75,397.5z"/>
		<path d="M381.75,345c-1.63,5.27-5.48,6.75-10.64,6.74c-42.92-0.08-85.84-0.08-128.76,0c-5.15,0.01-9-1.45-10.61-6.74
			c0-0.5,0-1,0-1.5c0.99-3.51,3.35-5.65,6.75-6.75c45.5,0,91,0,136.5,0c3.5,1,5.66,3.34,6.75,6.75
			C381.75,344,381.75,344.5,381.75,345z"/>
		<path d="M381.75,397.5c-1.63,5.27-5.48,6.75-10.64,6.74c-42.92-0.08-85.84-0.08-128.76,0c-5.15,0.01-9-1.45-10.61-6.74
			c0-0.5,0-1,0-1.5c1.58-5.03,5.18-6.74,10.23-6.73c43.17,0.07,86.34,0.07,129.5,0c5.06-0.01,8.68,1.69,10.26,6.73
			C381.75,396.5,381.75,397,381.75,397.5z"/>
		<path d="M231.75,448.5c1.58-5.03,5.18-6.74,10.23-6.73c43.17,0.07,86.34,0.07,129.5,0c5.06-0.01,8.68,1.69,10.26,6.73
			c0,0.5,0,1,0,1.5c-1.09,3.41-3.25,5.75-6.75,6.75c-45.5,0-91,0-136.5,0c-3.4-1.1-5.76-3.24-6.75-6.75
			C231.75,449.5,231.75,449,231.75,448.5z"/>
		<path class="st0" d="M238.5,336.75c-3.4,1.1-5.76,3.24-6.75,6.75c0-2.25,0-4.5,0-6.75C234,336.75,236.25,336.75,238.5,336.75z"/>
		<path class="st0" d="M381.75,343.5c-1.09-3.41-3.25-5.75-6.75-6.75c2.25,0,4.5,0,6.75,0C381.75,339,381.75,341.25,381.75,343.5z"
			/>
		<path class="st0" d="M231.75,450c0.99,3.51,3.35,5.65,6.75,6.75c-2.25,0-4.5,0-6.75,0C231.75,454.5,231.75,452.25,231.75,450z"/>
		<path class="st0" d="M375,456.75c3.5-1,5.66-3.34,6.75-6.75c0,2.25,0,4.5,0,6.75C379.5,456.75,377.25,456.75,375,456.75z"/>
	</g>
</g>
</svg>
